# xmcd
#
# Track frame offsets: 
#        150
#        18064
#        34293
#
# Disc length: 651 seconds
#
# Revision: 1
# Processed by: cddbd v1.5.2PL0 Copyright (c) Steve Scherf et al.
# Submitted via: ExactAudioCopy v1.0b1
#
DISCID=18028903
DTITLE=Elvis Costello - Tokio Storm Warning
DYEAR=1987
DGENRE=Rock
TTITLE0=Tokio Storm Warning (part 1)
TTITLE1=Tokio Storm Warning (part 2)
TTITLE2=Black Sails in the Sunset
EXTD=
EXTT0=
EXTT1=
EXTT2=
PLAYORDER=
